<?xml version="1.0" encoding="utf-8"?>
<!-- Generator: Adobe Illustrator 22.1.0, SVG Export Plug-In . SVG Version: 6.00 Build 0)  -->
<svg version="1.1"
	 id="Слой_1" shape-rendering="geometricPrecision" image-rendering="optimizeQuality" text-rendering="geometricPrecision"
	 xmlns="http://www.w3.org/2000/svg" xmlns:xlink="http://www.w3.org/1999/xlink" x="0px" y="0px" viewBox="0 0 505 157"
	 style="enable-background:new 0 0 505 157;" xml:space="preserve">
<style type="text/css">
	.st0{fill:#005493;}
	.st1{fill:none;}
	.st2{font-family:'ArialMT';}
	.st3{font-size:34px;}
</style>
<path class="st0" d="M23,26h-8c-3,0-6-2-6-5h18C26,22,24,25,23,26z M47,90c1,1,2,2,4,3v6c-19,17,24,24,22,41c0,5-6,10-11,12
	c4-2,6-6,6-10c1-9-20-18-19-18C34,114,33,102,47,90z M52,93c2,2,5,4,7,6v22l-7-5V93z M106,11c0,0-18,3-20,3c-4,1-6,7-2,10
	c5,5,4,10,0,14c0,1-7-8-9-9c0,0,1-1,0-2c-4-6-2-11,2-14c5-5,19-9,26-11c3-1,5-2,7-2C112,5,111,9,106,11z M29,20c0-3-2-5-4-6
	C18,13-5,13,1,0c0,0,6,2,14,4c5,2,10,3,15,5c6,2,8,7,8,12c0,4-3,6-2,8c-3,3-6,6-9,10v-1C18,29,29,24,29,20z M99,20H84v-2
	c1-1,3-1,7-2c5-1,12-2,15-3C105,17,103,19,99,20z M83,54c10,7,7,18,0,25c-5,3-12,7-18,10c-2-1-3-2-4-3v-6c3-1,6-3,9-5
	c17-11-1-17,0-9C56,63,70,44,83,54z M50,46h11l-1,39c-3-2-6-3-9-5C51,68,51,57,50,46z M29,79c-19-17,6-36,16-24c5,5-1,10-3,10
	c1-8-19-2-1,10c8,4,16,9,23,15c4,3,8,7,9,12c2,10-4,16-11,21c-1-1-2-1-2-1v-7C78,98,38,87,29,79z M59,131c-1,8-1,15-1,23
	c0,2-1,3-3,3c-1,0-2-1-2-2c0-9-1-18-1-26c-4,3-9,7-9,12c1,7,6,10,6,10c-4-2-11-5-11-12c0-5,3-10,10-15C51,126,55,128,59,131z M89,43
	c0,1,0,2-1,2H23c-2-1-2-2-2-2c9,0,18-23,34-24c12,0,20,11,27,19C84,41,86,43,89,43z M102,21c0,3-4,5-6,5h-8c-1-2-3-3-4-5H102z
	 M97,27c-1,6-4,7-9,8c1-2,1-5,0-8H97z M23,35c-4,0-8-3-9-7c0-1,8-1,9-1C22,30,22,33,23,35z M27,20H12c-4-1-6-3-6-7c1,0,5,1,9,2
	c5,1,11,1,12,2V20z"/>
<rect x="126" y="24.9" class="st1" width="379" height="109"/>
<text transform="matrix(1 0 0 1 126 49.2335)"><tspan x="0" y="0" class="st0 st2 st3">Союз &quot;Тульская </tspan><tspan x="0" y="39" class="st0 st2 st3">торгово-промышленная </tspan><tspan x="0" y="78" class="st0 st2 st3">палата&quot;</tspan></text>
</svg>
